<svg aria-hidden="true" style="position: absolute; width: 0; height: 0; overflow: hidden;" version="1.1" xmlns="http://www.w3.org/2000/svg" xmlns:xlink="http://www.w3.org/1999/xlink">
<defs>
<symbol id="icon-four" viewBox="0 0 32 32">
<path fill="#404040" style="fill: var(--color1, #404040)" d="M21.6 21.6c4.269-1.028 7.2-3.149 7.2-5.6s-2.931-4.572-7.2-5.6c0.439 1.685 0.686 3.587 0.686 5.6s-0.247 3.915-0.686 5.6zM10.4 21.6c-4.269-1.028-7.2-3.149-7.2-5.6s2.931-4.572 7.2-5.6c-0.439 1.685-0.686 3.587-0.686 5.6s0.247 3.915 0.686 5.6z"></path>
<path fill="#ffd11a" style="fill: var(--color2, #ffd11a)" d="M10.4 21.6c1.028 4.269 3.149 7.2 5.6 7.2s4.572-2.931 5.6-7.2c-1.685 0.439-3.587 0.686-5.6 0.686s-3.915-0.247-5.6-0.686zM10.4 10.4c1.028-4.269 3.149-7.2 5.6-7.2s4.572 2.931 5.6 7.2c-1.685-0.439-3.587-0.686-5.6-0.686s-3.915 0.247-5.6 0.686z"></path>
</symbol>
<symbol id="icon-burger-menu" viewBox="0 0 31 32">
<path d="M3.886 9.2v0c0 0.537 0.435 0.972 0.972 0.972l21.373-0c0.522-0.017 0.941-0.445 0.941-0.971s-0.418-0.955-0.942-0.971h-21.371c-0.537 0-0.972 0.435-0.972 0.972zM3.886 16v0c0.001 0.536 0.435 0.971 0.972 0.971l21.373-0c0.522-0.017 0.941-0.445 0.941-0.971s-0.418-0.955-0.942-0.971h-21.371c-0.537 0-0.972 0.435-0.972 0.972zM14.571 22.8v0c0 0.537 0.435 0.972 0.972 0.972l10.688-0c0.522-0.017 0.941-0.445 0.941-0.971s-0.418-0.955-0.942-0.971h-10.686c-0.537 0-0.971 0.435-0.971 0.972z"></path>
</symbol>
<symbol id="icon-change" viewBox="0 0 32 32">
<path d="M8.32 12.16l7.68 7.68 7.68-7.68"></path>
</symbol>
<symbol id="icon-comment" viewBox="0 0 31 32">
<path  d="M10.862 25.202c1.357 0.666 2.884 1.038 4.498 1.038 5.655-0.001 10.238-4.585 10.238-10.24s-4.585-10.24-10.24-10.24-10.24 4.585-10.24 10.24c0 2.115 0.641 4.080 1.74 5.712l-0.023-0.037M10.862 25.202l-5.742 1.038 1.715-4.564M10.862 25.202l0.008-0.001M6.835 21.676l0.003-0.004"></path>
</symbol>
<symbol id="icon-conversations" viewBox="0 0 32 32">
<path fill="#ffd11a" style="fill: var(--color2, #ffd11a)" d="M3.16 5.728h25.284l-7.111 11.062c-7.817 0-14.294-4.275-18.173-11.062z"></path>
<path fill="#404040" style="fill: var(--color1, #404040)" d="M28.444 26.272h-25.284l7.111-11.062c7.817 0 14.294 4.275 18.173 11.062z"></path>
</symbol>
<symbol id="icon-cube" viewBox="0 0 37 32">
<path fill="#ffd11a" style="fill: var(--color2, #ffd11a)" d="M8.584 22.107v9.893h19.806v-9.893h-19.806z"></path>
<path fill="#404040" style="fill: var(--color1, #404040)" d="M28.386 22.098l8.567-4.946-9.903-17.152-8.567 4.946 9.903 17.152zM18.47 4.96l-8.567-4.946-9.903 17.152 8.567 4.946 9.903-17.152z"></path>
</symbol>
<symbol id="icon-detail" viewBox="0 0 32 32">
<path fill="#ffd11a" style="fill: var(--color2, #ffd11a)" d="M15.012 18.37c0-4.547 13.245-12.642 12.621-9.608-0.622 2.888-0.979 6.207-0.979 9.608s0.356 6.72 1.034 9.919l-0.055-0.311c0.624 3.034-12.621-5.061-12.621-9.608z"></path>
<path fill="#404040" style="fill: var(--color1, #404040)" d="M16.593 13.63c0 4.547-13.245 12.642-12.621 9.608 0.622-2.888 0.979-6.207 0.979-9.608s-0.356-6.72-1.034-9.919l0.055 0.311c-0.624-3.034 12.621 5.061 12.621 9.608z"></path>
</symbol>
<symbol id="icon-down" viewBox="0 0 32 32">
<path d="M16 5.44c0.53 0 0.96 0.43 0.96 0.96v0 16.883l7.002-7.002c0.176-0.188 0.425-0.306 0.702-0.306 0.53 0 0.96 0.43 0.96 0.96 0 0.277-0.117 0.527-0.305 0.702l-0.001 0-8.64 8.64c-0.174 0.173-0.413 0.281-0.678 0.281s-0.505-0.107-0.678-0.281v0l-8.64-8.64c-0.188-0.176-0.306-0.425-0.306-0.702 0-0.53 0.43-0.96 0.96-0.96 0.277 0 0.527 0.117 0.702 0.305l0.001 0.001 7.002 7.002v-16.883c0-0.53 0.43-0.96 0.96-0.96v0z"></path>
</symbol>
<symbol id="icon-eye" viewBox="0 0 31 32">
<path fill="none" stroke="#ffd11a" style="stroke: var(--color2, #ffd11a)" stroke-linejoin="round" stroke-linecap="round" stroke-miterlimit="4" stroke-width="1.92" d="M27.652 14.5c0.326 0.411 0.508 0.946 0.508 1.5s-0.182 1.089-0.508 1.5c-2.072 2.532-6.788 7.46-12.292 7.46s-10.22-4.928-12.292-7.46c-0.317-0.405-0.508-0.922-0.508-1.483 0-0.006 0-0.012 0-0.018v0.001c0-0.554 0.182-1.088 0.508-1.5 2.072-2.532 6.788-7.46 12.292-7.46s10.221 4.928 12.292 7.46z"></path>
<path fill="none" stroke="#ffd11a" style="stroke: var(--color2, #ffd11a)" stroke-linejoin="round" stroke-linecap="round" stroke-miterlimit="4" stroke-width="1.92" d="M15.36 19.981c2.18 0 3.946-1.782 3.946-3.981s-1.766-3.982-3.945-3.982c-2.18 0-3.946 1.783-3.946 3.981 0 2.202 1.766 3.983 3.946 3.983z"></path>
</symbol>
<symbol id="icon-up" viewBox="0 0 32 32">
<path d="M11.2 5.44h14.4c0.53 0 0.96 0.43 0.96 0.96v0 14.4c0 0.53-0.43 0.96-0.96 0.96s-0.96-0.43-0.96-0.96v0-12.083l-17.562 17.562c-0.171 0.16-0.401 0.258-0.654 0.258-0.53 0-0.96-0.43-0.96-0.96 0-0.253 0.098-0.483 0.258-0.655l-0 0.001 17.562-17.562h-12.083c-0.53 0-0.96-0.43-0.96-0.96s0.43-0.96 0.96-0.96v0z"></path>
</symbol>
<symbol id="icon-leav" viewBox="0 0 33 32">
<path fill="#ffd11a" style="fill: var(--color2, #ffd11a)" d="M3.627 3.2h12.8c7.069 0 12.8 5.731 12.8 12.8h-12.8c-7.069 0-12.8-5.731-12.8-12.8z"></path>
<path fill="#404040" style="fill: var(--color1, #404040)" d="M3.627 16h12.8c7.069 0 12.8 5.731 12.8 12.8h-12.8c-7.069 0-12.8-5.731-12.8-12.8z"></path>
</symbol>
<symbol id="icon-letter" viewBox="0 0 31 32">
<path d="M12.849 18.511l-7.508-3.414c-1.033-0.47-0.989-1.952 0.070-2.36l18.781-7.223c1.036-0.398 2.052 0.618 1.654 1.654l-7.222 18.781c-0.408 1.060-1.891 1.105-2.36 0.070l-3.414-7.508zM12.849 18.511l5.613-5.613"></path>
</symbol>
<symbol id="icon-like" viewBox="0 0 31 32">
<path d="M14.906 27.405l-0.009-0.004-0.028-0.015c-0.261-0.141-0.421-0.234-0.58-0.328l0.089 0.049c-2.052-1.23-3.83-2.571-5.453-4.076l0.021 0.019c-2.945-2.748-6.066-6.826-6.066-11.849 0-3.748 3.154-6.72 6.961-6.72 0.010-0 0.022-0 0.034-0 2.211 0 4.184 1.019 5.475 2.613l0.010 0.013c1.301-1.607 3.274-2.627 5.485-2.627 0.013 0 0.025 0 0.038 0h-0.002c3.805 0 6.959 2.972 6.959 6.72 0 5.024-3.121 9.102-6.066 11.848-1.602 1.487-3.381 2.828-5.287 3.977l-0.145 0.081c-0.070 0.046-0.23 0.139-0.392 0.23l-0.098 0.051-0.028 0.015-0.009 0.005-0.004 0.001c-0.131 0.071-0.286 0.112-0.451 0.112s-0.32-0.041-0.456-0.114l0.005 0.003-0.004-0.001z"></path>
</symbol>
<symbol id="icon-linkedIn" viewBox="0 0 32 32">
<path d="M27.82 2.133h-23.64c-1.13 0-2.047 0.916-2.047 2.047v0 23.64c0.001 1.131 0.917 2.047 2.048 2.047h23.639c1.131-0.001 2.047-0.917 2.047-2.048v0-23.639c-0.001-1.13-0.917-2.046-2.047-2.047h-0zM10.4 25.759h-4.171v-13.245h4.171v13.245zM8.312 10.679c-1.316-0.008-2.38-1.076-2.38-2.393 0-1.322 1.072-2.393 2.393-2.393s2.393 1.072 2.393 2.393c0 0 0 0.001 0 0.001v-0c0 0.010 0 0.021 0 0.032 0 1.303-1.057 2.36-2.36 2.36-0.017 0-0.033-0-0.049-0.001l0.002 0zM25.768 25.769h-4.167v-7.236c0-2.133-0.907-2.792-2.079-2.792-1.236 0-2.449 0.933-2.449 2.847v7.181h-4.171v-13.247h4.011v1.836h0.053c0.403-0.815 1.813-2.207 3.964-2.207 2.327 0 4.84 1.38 4.84 5.425l-0.003 8.192z"></path>
</symbol>
<symbol id="icon-logo" viewBox="0 0 32 32">
<path fill="#ffd11a" style="fill: var(--color2, #ffd11a)" d="M21.157 31.868v-5.289c2.927 0 5.289-2.362 5.289-5.289h5.289c0 5.854-4.743 10.578-10.578 10.578z"></path>
<path fill="#ffd11a" style="fill: var(--color2, #ffd11a)" d="M21.157 31.868v-5.289c-2.927 0-5.289-2.362-5.289-5.289h-5.289c0 5.854 4.743 10.578 10.579 10.578zM0 21.289h5.289c0 2.927 2.362 5.289 5.289 5.289v5.289c-5.836 0-10.579-4.725-10.579-10.579z"></path>
<path fill="#ffd11a" style="fill: var(--color2, #ffd11a)" d="M0 21.289h5.289c0-2.927 2.362-5.289 5.289-5.289v-5.289c-5.836 0-10.579 4.743-10.579 10.579zM10.579 0.132v5.289c-2.927 0-5.289 2.362-5.289 5.289h-5.289c0-5.836 4.743-10.579 10.579-10.579zM10.579 0.132v5.289c2.927 0 5.289 2.362 5.289 5.289h5.289c0-5.836-4.743-10.579-10.579-10.579zM31.735 10.711h-5.289c0-2.927-2.362-5.289-5.289-5.289v-5.289c5.836 0 10.578 4.743 10.578 10.579zM31.735 10.711h-5.289c0 2.927-2.362 5.289-5.289 5.289v5.289c5.836 0 10.578-4.725 10.578-10.579z"></path>
</symbol>
<symbol id="icon-full-logo" viewBox="0 0 112 32">
<path fill="#fff" style="fill: var(--color3, #fff)" d="M103.297 10.581h1.926v2.955l-0.118 1.309h0.118c0.206-0.343 0.5-0.622 0.882-0.838 0.392-0.226 0.828-0.339 1.309-0.339 0.931 0 1.618 0.275 2.059 0.824 0.451 0.549 0.676 1.299 0.676 2.25v4.367h-1.926v-4.131c0-0.5-0.117-0.878-0.353-1.133-0.235-0.265-0.564-0.397-0.986-0.397-0.265 0-0.5 0.059-0.706 0.177-0.212 0.113-0.389 0.267-0.526 0.451l-0.003 0.004c-0.137 0.198-0.248 0.428-0.32 0.675l-0.004 0.017c-0.065 0.24-0.103 0.516-0.103 0.801 0 0.008 0 0.015 0 0.023v-0.001 3.515h-1.926v-10.53zM102.563 19.272c-0.318 0.612-0.766 1.116-1.31 1.491l-0.014 0.009c-0.558 0.383-1.26 0.574-2.103 0.574-0.014 0-0.029 0-0.046 0-0.539 0-1.054-0.103-1.527-0.289l0.028 0.010c-0.469-0.2-0.869-0.473-1.206-0.809l0 0c-0.328-0.339-0.596-0.738-0.785-1.18l-0.010-0.025c-0.186-0.471-0.279-0.985-0.279-1.544s0.093-1.074 0.279-1.544c0.196-0.471 0.461-0.872 0.794-1.206 0.335-0.335 0.736-0.604 1.182-0.786l0.024-0.009c0.444-0.186 0.96-0.294 1.502-0.294 0.015 0 0.030 0 0.045 0l-0.002-0c0.833 0 1.534 0.191 2.103 0.574 0.549 0.364 0.978 0.869 1.241 1.463l0.009 0.022-1.764 0.735c-0.167-0.334-0.383-0.584-0.647-0.75-0.255-0.176-0.579-0.264-0.971-0.264-0.255 0-0.495 0.049-0.721 0.147-0.234 0.103-0.434 0.242-0.603 0.412l-0 0c-0.168 0.181-0.303 0.396-0.393 0.633l-0.004 0.013c-0.098 0.255-0.147 0.54-0.147 0.853s0.049 0.598 0.147 0.853c0.099 0.254 0.231 0.471 0.397 0.646 0.177 0.177 0.378 0.314 0.603 0.412s0.466 0.147 0.721 0.147c0.402 0 0.74-0.088 1.015-0.265 0.284-0.186 0.51-0.451 0.676-0.794l1.765 0.764zM94.745 19.376c-0.333 0.586-0.79 1.066-1.337 1.417l-0.016 0.010c-0.559 0.363-1.245 0.544-2.059 0.544-0.011 0-0.025 0-0.038 0-0.537 0-1.049-0.103-1.519-0.289l0.028 0.010c-0.469-0.2-0.869-0.473-1.206-0.809l0 0c-0.336-0.337-0.609-0.737-0.799-1.181l-0.009-0.025c-0.177-0.445-0.279-0.961-0.279-1.501 0-0.015 0-0.030 0-0.046l-0 0.002c0-0.52 0.094-1.010 0.279-1.471 0.187-0.474 0.451-0.88 0.781-1.221l-0.001 0.001c0.327-0.346 0.718-0.628 1.153-0.829l0.023-0.010c0.434-0.195 0.941-0.309 1.474-0.309 0.014 0 0.029 0 0.043 0l-0.002-0c0.579 0 1.093 0.098 1.544 0.294 0.451 0.186 0.828 0.451 1.132 0.794 0.301 0.332 0.537 0.73 0.685 1.167l0.007 0.024c0.157 0.461 0.235 0.961 0.235 1.5v0.176c-0.010 0.059-0.015 0.113-0.015 0.162-0.009 0.047-0.014 0.101-0.014 0.157 0 0.002 0 0.004 0 0.005v-0h-5.426c0.039 0.294 0.117 0.549 0.235 0.765 0.127 0.206 0.279 0.382 0.456 0.529 0.186 0.138 0.387 0.24 0.603 0.309 0.216 0.059 0.436 0.088 0.662 0.088 0.441 0 0.804-0.098 1.088-0.294 0.286-0.199 0.519-0.455 0.686-0.753l0.006-0.011 1.603 0.794zM92.995 16.581c-0.018-0.159-0.065-0.303-0.135-0.433l0.003 0.006c-0.080-0.173-0.189-0.32-0.322-0.44l-0.001-0.001c-0.148-0.143-0.324-0.257-0.519-0.334l-0.011-0.004c-0.206-0.088-0.456-0.132-0.75-0.132-0.412 0-0.775 0.117-1.089 0.353s-0.534 0.563-0.661 0.985h3.485zM83.438 21.111v-8.647h-2.942v-1.882h7.868v1.882h-2.941v8.646h-1.985zM80.060 19.376c-0.333 0.586-0.79 1.066-1.337 1.417l-0.016 0.010c-0.559 0.363-1.246 0.544-2.059 0.544-0.011 0-0.025 0-0.038 0-0.536 0-1.049-0.103-1.518-0.289l0.028 0.010c-0.469-0.2-0.869-0.473-1.206-0.809l0 0c-0.336-0.337-0.609-0.737-0.799-1.181l-0.009-0.025c-0.186-0.471-0.279-0.985-0.279-1.544 0-0.52 0.093-1.010 0.279-1.471 0.187-0.474 0.451-0.88 0.78-1.222l-0.001 0.001c0.327-0.346 0.718-0.628 1.153-0.829l0.023-0.010c0.434-0.195 0.941-0.309 1.474-0.309 0.014 0 0.029 0 0.043 0l-0.002-0c0.579 0 1.093 0.098 1.544 0.294 0.448 0.183 0.826 0.453 1.13 0.791l0.003 0.003c0.3 0.332 0.536 0.73 0.684 1.167l0.007 0.024c0.157 0.461 0.235 0.961 0.235 1.5v0.176c-0.009 0.059-0.014 0.113-0.014 0.162-0.010 0.047-0.015 0.1-0.015 0.155 0 0.002 0 0.005 0 0.007v-0h-5.426c0.040 0.294 0.118 0.549 0.235 0.765 0.127 0.206 0.279 0.382 0.456 0.529 0.186 0.138 0.387 0.24 0.603 0.309 0.215 0.059 0.436 0.088 0.661 0.088 0.441 0 0.804-0.098 1.089-0.294 0.286-0.199 0.519-0.455 0.685-0.753l0.006-0.011 1.603 0.794zM78.31 16.581c-0.018-0.159-0.065-0.303-0.135-0.433l0.003 0.006c-0.080-0.173-0.189-0.32-0.323-0.44l-0.001-0.001c-0.148-0.143-0.324-0.257-0.519-0.334l-0.011-0.004c-0.206-0.088-0.456-0.132-0.75-0.132-0.412 0-0.774 0.117-1.088 0.353s-0.535 0.563-0.662 0.985h3.486zM68.134 13.904h1.809v1h0.118c0.088-0.176 0.206-0.338 0.353-0.485s0.309-0.275 0.485-0.383c0.186-0.107 0.383-0.191 0.589-0.25 0.216-0.059 0.427-0.088 0.632-0.088 0.255 0 0.471 0.024 0.647 0.073 0.186 0.049 0.343 0.113 0.471 0.191l-0.514 1.751c-0.115-0.058-0.248-0.104-0.387-0.131l-0.010-0.002c-0.141-0.037-0.303-0.059-0.47-0.059-0.016 0-0.031 0-0.047 0.001l0.002-0c-0.265 0-0.505 0.054-0.721 0.162-0.216 0.098-0.402 0.24-0.558 0.427-0.147 0.189-0.267 0.408-0.349 0.646l-0.005 0.016c-0.078 0.245-0.117 0.515-0.117 0.809v3.529h-1.927v-7.206zM65.116 20.169h-0.117c-0.228 0.363-0.535 0.656-0.899 0.861l-0.013 0.006c-0.383 0.206-0.819 0.309-1.309 0.309-0.912 0-1.594-0.279-2.044-0.838-0.441-0.558-0.662-1.304-0.662-2.235v-4.368h1.926v4.133c0 0.52 0.113 0.907 0.339 1.161 0.235 0.245 0.574 0.368 1.015 0.368 0.265 0 0.495-0.054 0.691-0.162 0.206-0.117 0.378-0.27 0.515-0.456 0.147-0.196 0.255-0.422 0.323-0.676 0.075-0.247 0.118-0.53 0.118-0.824 0-0.005 0-0.010-0-0.016v0.001-3.529h1.926v7.206h-1.809v-0.941zM55.464 15.551h-1.265v-1.647h1.265v-2.206h1.926v2.206h1.765v1.647h-1.765v2.795c0 0.166 0.015 0.323 0.044 0.471 0.040 0.137 0.108 0.255 0.206 0.353 0.137 0.157 0.333 0.235 0.588 0.235 0.167 0 0.299-0.014 0.397-0.044 0.098-0.040 0.191-0.088 0.279-0.147l0.544 1.692c-0.226 0.108-0.471 0.186-0.735 0.235-0.255 0.058-0.539 0.088-0.853 0.088-0.012 0-0.026 0-0.040 0-0.339 0-0.664-0.059-0.965-0.168l0.020 0.006c-0.28-0.114-0.52-0.273-0.721-0.471l0 0c-0.461-0.442-0.691-1.069-0.691-1.882v-3.162zM51.58 20.169h-0.118c-0.228 0.363-0.535 0.656-0.899 0.861l-0.013 0.006c-0.383 0.206-0.819 0.309-1.309 0.309-0.912 0-1.593-0.279-2.044-0.838-0.441-0.558-0.661-1.304-0.661-2.235v-4.368h1.926v4.133c0 0.52 0.113 0.907 0.339 1.161 0.235 0.245 0.573 0.368 1.014 0.368 0.265 0 0.496-0.054 0.691-0.162 0.206-0.117 0.377-0.27 0.514-0.456 0.147-0.196 0.255-0.422 0.324-0.676 0.075-0.246 0.117-0.529 0.117-0.822 0-0.006-0-0.012-0-0.018v0.001-3.529h1.926v7.206h-1.808v-0.941zM39.358 10.581h6.676v1.882h-4.691v2.559h4.221v1.882h-4.221v4.206h-1.985v-10.529z"></path>
<path fill="#ffd11a" style="fill: var(--color2, #ffd11a)" d="M20.915 31.686v-5.229c0.002 0 0.005 0 0.008 0 2.884 0 5.222-2.338 5.222-5.222 0-0.003 0-0.005 0-0.008v0h5.229c0 5.787-4.688 10.458-10.458 10.458zM20.915 31.686v-5.229c-0.002 0-0.004 0-0.007 0-2.884 0-5.222-2.338-5.222-5.222 0-0.003 0-0.005 0-0.008v0h-5.229c0 5.787 4.688 10.458 10.457 10.458zM0 21.229h5.229c0 0.002 0 0.005 0 0.008 0 2.884 2.338 5.222 5.222 5.222 0.003 0 0.005 0 0.008 0h-0v5.229c-5.769 0-10.458-4.671-10.458-10.458zM0 21.229h5.229c0-0.002 0-0.004 0-0.007 0-2.884 2.338-5.222 5.222-5.222 0.003 0 0.005 0 0.008 0h-0v-5.229c-5.769 0-10.458 4.688-10.458 10.457zM10.458 0.314v5.229c-0.002 0-0.005 0-0.008 0-2.884 0-5.222 2.338-5.222 5.222 0 0.003 0 0.005 0 0.008v-0h-5.229c0-5.769 4.688-10.458 10.458-10.458zM10.458 0.314v5.229c0.002 0 0.004 0 0.007 0 2.884 0 5.222 2.338 5.222 5.222 0 0.003 0 0.005 0 0.008v-0h5.229c0-5.769-4.688-10.458-10.457-10.458zM31.373 10.771h-5.229c0-0.002 0-0.005 0-0.008 0-2.884-2.338-5.222-5.222-5.222-0.003 0-0.005 0-0.008 0h0v-5.229c5.769 0 10.458 4.688 10.458 10.458zM31.373 10.771h-5.229c0 0.002 0 0.004 0 0.007 0 2.884-2.338 5.222-5.222 5.222-0.003 0-0.005 0-0.008 0h0v5.229c5.769 0 10.458-4.67 10.458-10.457z"></path>
</symbol>
<symbol id="icon-medium" viewBox="0 0 32 32">
<path d="M18.049 16.304c0 5.027-4.040 9.104-9.024 9.104s-9.025-4.077-9.025-9.104c0-5.027 4.040-9.104 9.025-9.104 4.984 0 9.024 4.076 9.024 9.104zM27.951 16.305c0 4.732-2.021 8.569-4.513 8.569s-4.512-3.837-4.512-8.569c0-4.733 2.020-8.571 4.512-8.571 2.493 0 4.512 3.836 4.512 8.571zM32 16.304c0 4.24-0.711 7.677-1.587 7.677-0.877 0-1.587-3.437-1.587-7.677s0.709-7.677 1.587-7.677c0.876 0 1.587 3.437 1.587 7.677z"></path>
</symbol>
<symbol id="icon-mine" viewBox="0 0 32 32">
<path d="M25.333 14.667h-18.667c-0.736 0-1.333 0.597-1.333 1.333s0.597 1.333 1.333 1.333v0h18.667c0.736 0 1.333-0.597 1.333-1.333s-0.597-1.333-1.333-1.333v0z"></path>
</symbol>
<symbol id="icon-player" viewBox="0 0 32 32">
<path d="M3 16c0 7.18 5.82 13 13 13s13-5.82 13-13c0-7.18-5.82-13-13-13s-13 5.82-13 13zM21.699 14.689c1.029 0.571 1.029 2.051 0 2.622l-7.47 4.151c-1 0.555-2.229-0.168-2.229-1.312v-8.3c0-1.143 1.229-1.867 2.229-1.311l7.47 4.15z"></path>
</symbol>
<symbol id="icon-plus" viewBox="0 0 32 32">
<path  d="M25.333 14.667h-8v-8c0-0.736-0.597-1.333-1.333-1.333s-1.333 0.597-1.333 1.333v0 8h-8c-0.736 0-1.333 0.597-1.333 1.333s0.597 1.333 1.333 1.333v0h8v8c0 0.736 0.597 1.333 1.333 1.333s1.333-0.597 1.333-1.333v0-8h8c0.736 0 1.333-0.597 1.333-1.333s-0.597-1.333-1.333-1.333v0z"></path>
</symbol>
<symbol id="icon-podcasts" viewBox="0 0 32 32">
<path fill="#404040" style="fill: var(--color1, #404040)" d="M16 9.6c0 3.535-2.865 6.4-6.4 6.4s-6.4-2.865-6.4-6.4 2.865-6.4 6.4-6.4 6.4 2.865 6.4 6.4z"></path>
<path fill="#ffd11a" style="fill: var(--color2, #ffd11a)" d="M28.8 9.6c0 3.535-2.865 6.4-6.4 6.4s-6.4-2.865-6.4-6.4 2.865-6.4 6.4-6.4 6.4 2.865 6.4 6.4z"></path>
<path fill="#404040" style="fill: var(--color1, #404040)" d="M28.8 22.4c0 3.535-2.865 6.4-6.4 6.4s-6.4-2.865-6.4-6.4 2.865-6.4 6.4-6.4 6.4 2.865 6.4 6.4z"></path>
<path fill="#ffd11a" style="fill: var(--color2, #ffd11a)" d="M16 22.4c0 3.535-2.865 6.4-6.4 6.4s-6.4-2.865-6.4-6.4 2.865-6.4 6.4-6.4 6.4 2.865 6.4 6.4z"></path>
</symbol>
<symbol id="icon-qcw" viewBox="0 0 32 32">
<path fill="#404040" style="fill: var(--color1, #404040)" d="M22.4 22.4h-12.8v-12.8l12.8 12.8z"></path>
<path fill="#ffd11a" style="fill: var(--color2, #ffd11a)" d="M28.8 3.2h-25.6l6.4 6.4h12.8v12.8l6.4 6.4v-25.6z"></path>
</symbol>
<symbol id="icon-questions" viewBox="0 0 32 32">
<path fill="#404040" style="fill: var(--color1, #404040)" d="M3.2 12c0 3.55 2.102 6.608 5.129 8h-5.129c0 4.86 3.94 8.8 8.8 8.8 3.55 0 6.609-2.102 8-5.129v5.129c4.86 0 8.8-3.94 8.8-8.8 0-3.55-2.102-6.609-5.129-8h5.129c0-4.86-3.94-8.8-8.8-8.8-3.55 0-6.609 2.102-8 5.129v-5.129c-4.86 0-8.8 3.94-8.8 8.8z"></path>
<path fill="#ffd11a" style="fill: var(--color2, #ffd11a)" d="M20 16c0 2.209-1.791 4-4 4s-4-1.791-4-4 1.791-4 4-4 4 1.791 4 4z"></path>
</symbol>
<symbol id="icon-revolution" viewBox="0 0 32 32">
<path fill="#ffd11a" style="fill: var(--color2, #ffd11a)" d="M19.24 10.949l-11.529 11.372-3.247-3.203c-0.804-0.789-1.303-1.888-1.303-3.103s0.499-2.314 1.302-3.103l0.001-0.001 8.383-8.269c1.738-1.714 4.555-1.714 6.293 0l0.101 0.1c0.805 0.789 1.303 1.888 1.303 3.103s-0.499 2.314-1.302 3.103l-0.001 0.001z"></path>
<path fill="#404040" style="fill: var(--color1, #404040)" d="M12.365 21.051l11.529-11.372 3.247 3.203c0.805 0.789 1.303 1.888 1.303 3.103s-0.499 2.314-1.302 3.103l-0.001 0.001-8.383 8.269c-1.738 1.714-4.555 1.714-6.293 0l-0.101-0.1c-0.804-0.789-1.303-1.888-1.303-3.103s0.499-2.314 1.302-3.103l0.001-0.001z"></path>
</symbol>
<symbol id="icon-sew" viewBox="0 0 32 32">
<path fill="#ffd11a" style="fill: var(--color2, #ffd11a)" d="M26.722 5.278c2.998 2.998 2.714 8.142-0.603 11.459l-6.031 6.031-10.856-10.856 6.031-6.032c3.318-3.317 8.462-3.601 11.46-0.603z"></path>
<path fill="#404040" style="fill: var(--color1, #404040)" d="M14.056 28.8l-10.856-10.856c3.331-3.331 8.462-3.601 11.459-0.603s2.728 8.128-0.603 11.459z"></path>
<path fill="#ffd11a" style="fill: var(--color2, #ffd11a)" d="M25.516 28.197l-10.856-10.856c3.331-3.331 8.461-3.601 11.459-0.603s2.728 8.128-0.603 11.459zM14.659 17.341l-10.856-10.856c3.331-3.331 8.462-3.601 11.459-0.604s2.728 8.128-0.603 11.46z"></path>
</symbol>
<symbol id="icon-st" viewBox="0 0 33 32">
<path fill="#ffd11a" style="fill: var(--color2, #ffd11a)" d="M16.214 22.4c0 3.535 2.865 6.4 6.4 6.4s6.4-2.865 6.4-6.4-2.866-6.4-6.4-6.4h-6.4v6.4zM16.214 9.6c0-3.535-2.866-6.4-6.4-6.4s-6.4 2.865-6.4 6.4 2.865 6.4 6.4 6.4h6.4v-6.4z"></path>
<path fill="#404040" style="fill: var(--color1, #404040)" d="M22.614 3.2c-3.535 0-6.4 2.865-6.4 6.4v6.4h6.4c3.534 0 6.4-2.865 6.4-6.4s-2.866-6.4-6.4-6.4zM25.814 9.6c0 1.767-1.433 3.2-3.2 3.2s-3.2-1.433-3.2-3.2v0c0-1.767 1.433-3.2 3.2-3.2s3.2 1.433 3.2 3.2v0zM9.814 28.8c3.534 0 6.4-2.865 6.4-6.4v-6.4h-6.4c-3.535 0-6.4 2.865-6.4 6.4s2.865 6.4 6.4 6.4zM13.014 22.4c0 1.767-1.433 3.2-3.2 3.2s-3.2-1.433-3.2-3.2v0c0-1.767 1.433-3.2 3.2-3.2s3.2 1.433 3.2 3.2v0z"></path>
</symbol>
<symbol id="icon-star" viewBox="0 0 32 32">
<path d="M12.706 3.109c1.237-2.109 4.285-2.109 5.522 0l2.762 4.71c0.45 0.758 1.184 1.307 2.052 1.503l0.021 0.004 5.333 1.17c2.387 0.525 3.33 3.424 1.707 5.251l-3.627 4.082c-0.501 0.562-0.807 1.308-0.807 2.125 0 0.11 0.006 0.219 0.017 0.327l-0.001-0.014 0.534 5.434c0.24 2.432-2.227 4.224-4.467 3.246l-5.002-2.189c-0.378-0.169-0.818-0.268-1.282-0.268s-0.905 0.099-1.303 0.276l0.020-0.008-5 2.187c-2.24 0.981-4.706-0.811-4.467-3.245l0.534-5.434c0.010-0.094 0.015-0.203 0.015-0.313 0-0.817-0.306-1.563-0.81-2.128l0.003 0.003-3.627-4.080c-1.624-1.829-0.682-4.73 1.706-5.253l5.333-1.17c0.889-0.2 1.624-0.749 2.066-1.492l0.008-0.015 2.762-4.71z"></path>
</symbol>
<symbol id="icon-sun" viewBox="0 0 32 32">
<path fill="#ffd11a" style="fill: var(--color2, #ffd11a)" d="M18.513 22.027h-4.995v9.973h4.995v-9.973zM18.513 0h-4.995v9.973h4.995v-9.973zM22.022 13.501v4.995h9.973v-4.995h-9.973zM0 13.505v4.995h9.973v-4.995h-9.973z"></path>
<path fill="#404040" style="fill: var(--color1, #404040)" d="M22.032 18.481l-3.533 3.533 7.053 7.052 3.532-3.533-7.052-7.052zM6.458 2.909l-3.532 3.532 7.053 7.052 3.532-3.533-7.053-7.051zM18.487 9.976l3.533 3.533 7.052-7.053-3.533-3.532-7.052 7.053zM2.916 25.549l3.533 3.532 7.052-7.052-3.533-3.533-7.052 7.053z"></path>
</symbol>
<symbol id="icon-twitter" viewBox="0 0 32 32">
<path  d="M28.076 9.575c0.013 0.281 0.013 0.551 0.013 0.832 0.012 8.537-6.261 18.393-17.733 18.393-3.383 0-6.704-1.011-9.556-2.905 0.44 0.056 0.949 0.088 1.465 0.088 2.955 0 5.666-1.048 7.78-2.793l-0.021 0.017c-2.667-0.051-5.013-1.856-5.828-4.493 0.354 0.076 0.761 0.12 1.177 0.12 0.584 0 1.147-0.086 1.678-0.246l-0.041 0.011c-2.901-0.588-4.988-3.239-5-6.323v-0.077c0.864 0.5 1.84 0.781 2.827 0.807-2.728-1.893-3.58-5.672-1.925-8.627 3.173 4.044 7.84 6.489 12.853 6.757-0.104-0.44-0.164-0.946-0.164-1.465 0-1.844 0.752-3.513 1.966-4.716l0-0c2.507-2.445 6.459-2.317 8.829 0.28 1.497-0.311 2.825-0.857 4.013-1.603l-0.051 0.030c-0.476 1.509-1.444 2.747-2.714 3.555l-0.026 0.016c1.331-0.172 2.539-0.527 3.657-1.043l-0.077 0.032c-0.855 1.312-1.892 2.422-3.091 3.33l-0.033 0.024z"></path>
</symbol>
<symbol id="icon-window" viewBox="0 0 32 32">
<path fill="#ffd11a" style="fill: var(--color2, #ffd11a)" d="M15.802 3.358v25.284l-11.062-6.321v-12.642l11.062-6.321z"></path>
<path fill="#404040" style="fill: var(--color1, #404040)" d="M26.864 3.358v25.284l-11.062-6.321v-12.642l11.062-6.321z"></path>
</symbol>
</defs>
</svg>
